<svg id="Layer_1" data-name="Layer 1" xmlns="http://www.w3.org/2000/svg" viewBox="0 0 1645.7 372.58"><defs><style>.cls-1{fill:#10cfc9;}</style></defs><title>OptOutToolsLogo</title><path class="cls-1" d="M499.93,96.62c43.09,0,68.45,32.17,68.45,73.51,0,40.18-25.36,72.35-68.45,72.35s-68.45-32.17-68.45-72.35C431.48,128.79,456.83,96.62,499.93,96.62Zm0,120.12c27.49,0,37.83-23.4,37.83-46.61,0-24.37-10.34-47.77-37.83-47.77s-37.83,23.4-37.83,47.77C462.1,193.34,472.43,216.74,499.93,216.74Z"/><path class="cls-1" d="M582.41,138.35h26.33v12.87h.39c6.63-10.73,17.55-15.6,30-15.6,31.59,0,45.82,25.54,45.82,54.21,0,26.91-14.82,52.07-44.26,52.07-12.09,0-23.6-5.27-30.23-15.21h-.39v48H582.41Zm74.88,50.7c0-16-6.43-32.57-24.18-32.57-18.13,0-24,16.19-24,32.57s6.24,32,24.18,32C651.44,221,657.29,205.43,657.29,189.05Z"/><path class="cls-1" d="M732.76,138.35H753v18.52H732.76V206.8c0,9.36,2.33,11.7,11.7,11.7a43,43,0,0,0,8.58-.78v21.64a106.24,106.24,0,0,1-16.19,1c-17,0-31.79-3.9-31.79-24V156.87H688.29V138.35h16.77V108.12h27.7Z"/><path class="cls-1" d="M877.72,96.62c43.09,0,68.45,32.17,68.45,73.51,0,40.18-25.36,72.35-68.45,72.35s-68.45-32.17-68.45-72.35C809.27,128.79,834.62,96.62,877.72,96.62Zm0,120.12c27.49,0,37.83-23.4,37.83-46.61,0-24.37-10.34-47.77-37.83-47.77s-37.83,23.4-37.83,47.77C839.89,193.34,850.22,216.74,877.72,216.74Z"/><path class="cls-1" d="M1054.78,239.17h-26.33v-14h-.58a36,36,0,0,1-30.81,16.77c-29.45,0-36.86-16.58-36.86-41.54v-62h27.69v56.94c0,16.58,4.88,24.77,17.75,24.77,15,0,21.45-8.39,21.45-28.86V138.35h27.69Z"/><path class="cls-1" d="M1107,138.35h20.28v18.52H1107V206.8c0,9.36,2.34,11.7,11.7,11.7a43,43,0,0,0,8.58-.78v21.64a106.24,106.24,0,0,1-16.19,1c-17,0-31.79-3.9-31.79-24V156.87h-16.77V138.35h16.77V108.12H1107Z"/><path class="cls-1" d="M1220.41,125.67h-41.73V99.93h114.08v25.74H1251v113.5h-30.61Z"/><path class="cls-1" d="M1329.22,135.62c31.79,0,52.26,21.06,52.26,53.24,0,32-20.47,53-52.26,53-31.59,0-52.07-21.06-52.07-53C1277.15,156.68,1297.63,135.62,1329.22,135.62Zm0,85.41c18.91,0,24.57-16.18,24.57-32.17,0-16.19-5.66-32.38-24.57-32.38-18.72,0-24.38,16.19-24.38,32.38C1304.84,204.85,1310.5,221,1329.22,221Z"/><path class="cls-1" d="M1444.46,135.62c31.79,0,52.26,21.06,52.26,53.24,0,32-20.47,53-52.26,53-31.59,0-52.06-21.06-52.06-53C1392.4,156.68,1412.87,135.62,1444.46,135.62Zm0,85.41c18.92,0,24.57-16.18,24.57-32.17,0-16.19-5.65-32.38-24.57-32.38-18.72,0-24.37,16.19-24.37,32.38C1420.09,204.85,1425.74,221,1444.46,221Z"/><path class="cls-1" d="M1511.54,99.93h27.69V239.17h-27.69Z"/><path class="cls-1" d="M1578.62,206.41c.19,12.09,10.33,17,21.26,17,8,0,18.13-3.12,18.13-12.87,0-8.38-11.5-11.31-31.4-15.6-16-3.51-32-9.16-32-26.91,0-25.74,22.23-32.37,43.88-32.37,22,0,42.32,7.41,44.46,32.17h-26.32c-.78-10.72-9-13.65-18.92-13.65-6.24,0-15.41,1.17-15.41,9.36,0,9.95,15.61,11.31,31.4,15,16.19,3.71,32,9.56,32,28.28,0,26.52-23,35.1-46,35.1-23.4,0-46.22-8.78-47.39-35.49Z"/><path class="cls-1" d="M186.29,0C83.57,0,0,83.57,0,186.29S83.57,372.58,186.29,372.58a185.67,185.67,0,0,0,91.3-23.93l65.12,22.67a22.19,22.19,0,0,0,7.38,1.26,22.48,22.48,0,0,0,21.23-29.87l-22.67-65.12a185.63,185.63,0,0,0,23.92-91.3C372.57,83.57,289,0,186.29,0ZM302.73,282.41l10.85,31.17-31.17-10.85a22.45,22.45,0,0,0-19.58,2.35,140.79,140.79,0,0,1-76.54,22.55C108.35,327.63,45,264.22,45,186.29S108.35,45,186.29,45s141.33,63.4,141.33,141.34a140.71,140.71,0,0,1-22.55,76.54A22.48,22.48,0,0,0,302.73,282.41Z"/><polygon class="cls-1" points="208.76 150.85 208.76 95.47 163.81 95.47 163.81 150.85 103.46 137.3 93.61 181.16 149.83 193.78 113.21 250.14 150.9 274.64 186.29 220.18 221.67 274.64 259.37 250.14 222.74 193.78 278.96 181.16 269.12 137.3 208.76 150.85"/></svg>