<?xml version="1.0" encoding="UTF-8" standalone="no"?>
<svg
   xmlns:dc="http://purl.org/dc/elements/1.1/"
   xmlns:cc="http://creativecommons.org/ns#"
   xmlns:rdf="http://www.w3.org/1999/02/22-rdf-syntax-ns#"
   xmlns:svg="http://www.w3.org/2000/svg"
   xmlns="http://www.w3.org/2000/svg"
   id="svg8"
   version="1.1"
   viewBox="0 0 726.01665 193.675"
   height="732"
   width="2744">
  <defs
     id="defs2" />
  <metadata
     id="metadata5">
    <rdf:RDF>
      <cc:Work
         rdf:about="">
        <dc:format>image/svg+xml</dc:format>
        <dc:type
           rdf:resource="http://purl.org/dc/dcmitype/StillImage" />
        <dc:title></dc:title>
      </cc:Work>
    </rdf:RDF>
  </metadata>
  <g
     transform="translate(0,-103.32499)"
     id="layer1">
    <g
       transform="matrix(1.1936161,0,0,1.273754,-7.7547079,57.034762)"
       id="layer1-5">
      <g
         transform="matrix(0.26458333,0,0,0.26458333,30.240993,266.48508)"
         id="g920">
        <g
           transform="matrix(0.83095969,0,0,0.78758486,-90.101619,-870.01815)"
           id="g1046">
          <path
             id="path4809"
             d="M 651,444.5 V 157 h 50.5 50.5 v 17.49151 17.4915 l 5.75,-4.36082 c 28.3793,-21.52296 62.59947,-35.46525 98.75,-40.2336 17.45084,-2.30182 54.29824,-1.48627 71.5,1.58252 46.2586,8.25252 83.8709,28.3131 116.5449,62.15945 29.7171,30.78329 49.0379,65.90613 59.4256,108.02842 8.4494,34.26219 8.5799,75.42268 0.3499,110.34102 -5.9052,25.05506 -18.2157,53.60284 -32.1261,74.5 C 1050.85,536.06474 1020.3801,563.23871 987,579.97886 955.22982,595.91161 924.24471,603 886.36884,603 848.57949,603 819.45289,597.01584 791.39383,583.48706 780.7861,578.37251 757.8015,563.8756 755.05687,560.56852 754.3409,559.70583 753.36021,559 752.87756,559 752.38091,559 752,596.54619 752,645.5 V 732 H 701.5 651 Z m 256,54.6417 c 42.17031,-9.71136 79.35853,-44.22155 92.28758,-85.6417 5.68362,-18.20826 7.33472,-42.94687 4.16922,-62.46623 -7.33088,-45.2037 -39.51192,-82.62538 -83.74699,-97.38504 -14.82699,-4.94723 -23.57252,-6.14551 -44.20981,-6.05742 -17.07711,0.0729 -19.96891,0.34032 -28.57377,2.64259 -21.83536,5.84212 -37.43548,14.9757 -54.02117,31.62837 -24.40401,24.50258 -35.35286,49.97355 -36.60363,85.15324 -1.12333,31.59548 5.44363,56.39232 21.20401,80.06625 18.80916,28.25357 46.96002,46.91804 79.99456,53.03768 13.03399,2.41454 36.80867,1.94494 49.5,-0.97774 z M 260,601.49143 C 203.45804,595.18752 154.71833,575.39665 112,541.39568 100.5382,532.27284 75.29554,506.83111 65.330263,494.35788 31.30333,451.76744 10.934349,404.38628 2.4115597,348 0.26125767,333.77373 -0.63682299,287.08998 0.93655774,271.32691 6.8371912,212.21082 27.068184,161.61866 63.049285,116 73.629607,102.58573 97.546618,78.602537 110.70704,68.210364 155.75934,32.634651 208.72907,11.581982 267.46702,5.9065557 283.36245,4.3706947 326.06604,5.2878509 339.5,7.4536267 424.78608,21.203151 496.20794,67.571339 544.02504,140.23447 c 24.55531,37.3144 40.23984,80.99174 45.52149,126.76553 2.29574,19.89621 1.58066,62.54903 -1.36689,81.5315 C 579.65419,403.43617 559.28785,451.12376 527.33445,491 518.56887,501.93899 495.91585,525.19828 485,534.46745 440.43034,572.31367 384.059,596.11806 325.14405,601.97116 311.24872,603.35163 274.24033,603.0791 260,601.49143 Z m 68.43069,-118.4579 C 392.56539,471.9526 446.45772,422.20005 465.49273,356.5 c 8.25895,-28.50605 9.81251,-66.62692 3.89009,-95.45414 C 465.08951,240.14826 454.09466,215.12906 441.23744,197 433.03945,185.44058 411.57877,163.63741 400,155.10445 360.51305,126.0046 310.25968,115.55579 259.76266,125.94596 206.48167,136.90894 160.24511,172.95428 135.90955,222.5 123.94906,246.85084 119,269.35708 119,299.39751 c 0,39.27084 9.45089,71.8845 29.749,102.65953 30.76809,46.64912 80.20586,77.67908 132.751,83.32211 9.00011,0.96656 35.39618,-0.35273 46.93069,-2.34562 z M 1674,595.42989 c -53.9852,-5.81985 -103.5645,-26.003 -145,-59.02777 -11.5623,-9.21537 -35.7234,-33.60433 -45.9684,-46.40212 -24.0376,-30.02687 -42.1255,-64.84641 -52.6118,-101.27876 -8.1817,-28.42547 -11.6425,-54.08173 -11.6305,-86.22124 0.014,-38.33984 5.6164,-71.17938 17.8043,-104.37073 5.4698,-14.89579 19.39,-42.33851 28.3061,-55.80341 47.4256,-71.621569 117.9361,-116.299866 203.6003,-129.009393 17.1391,-2.542829 65.2371,-2.557281 81,-0.02434 52.2299,8.392854 98.5967,28.576456 138.5,60.289548 10.8732,8.641424 37.5884,35.392285 46.3565,46.418325 32.5887,40.98086 52.9072,87.18977 60.7728,138.21125 3.9584,25.67712 3.6508,63.51552 -0.7504,92.28875 -7.6764,50.18593 -28.7212,98.40991 -60.0046,137.5 -8.8807,11.09685 -35.5695,37.79867 -46.3743,46.39696 -43.52,34.6325 -96.3693,56.0617 -151.856,61.5742 -14.0267,1.39353 -46.8485,1.10766 -62.144,-0.54127 z m 84,-106.85295 c 22.1365,-4.76223 44.3767,-17.78722 58.488,-34.25349 26.7283,-31.18912 46.3401,-82.80199 60.9193,-160.32345 5.9534,-31.65542 14.8067,-92.87208 14.3962,-99.54254 C 1891.1443,183.74542 1884.5798,178 1873,178 c -7.6039,0 -13.0459,2.60108 -16.5637,7.9169 -4.1411,6.25758 -9.7449,24.70592 -20.5611,67.68882 -5.5833,22.18787 -10.5271,40.10943 -10.9862,39.8257 -3.9826,-2.46141 -4.4374,-35.34055 -0.9535,-68.93142 1.1979,-11.55 3.4985,-30.675 5.1124,-42.5 3.6119,-26.46525 3.7107,-32.90391 0.5982,-39 -4.0197,-7.8727 -12.615,-12.16643 -21.1499,-10.56527 -3.9379,0.73876 -10.7921,6.30307 -12.983,10.53969 -4.6287,8.95095 -8.0013,24.88955 -14.0407,66.3557 -5.9616,40.93227 -7.1317,47.7604 -9.6897,56.54324 -1.6945,5.81822 -2.3085,6.93776 -2.9114,5.30806 -1.0026,-2.7104 -2.5336,-26.70475 -4.3821,-68.68142 -1.7351,-39.40061 -3.1283,-59.90007 -4.5622,-67.12514 -3.675,-18.5185 -24.5468,-25.74433 -37.7647,-13.07418 -7.9502,7.62072 -9.6361,15.69148 -8.8735,42.4803 0.3088,10.84546 1.5214,28.71902 2.6948,39.71902 2.3384,21.92127 2.9992,40.77826 1.6469,47 -0.8507,3.91427 -0.9222,3.76425 -3.3329,-7 -5.878,-26.24544 -32.7398,-96.86571 -41.0994,-108.05088 -11.9929,-16.04659 -34.1503,-12.70997 -39.727,5.98238 -2.8702,9.62043 -1.4002,17.78759 5.7674,32.04327 4.9377,9.82048 11.5139,26.71036 15.5843,40.02523 17.9382,58.67909 18.8366,113.91985 2.4178,148.65469 -4.79,10.13331 -9.5088,15.12754 -18.1726,19.23291 -6.5043,3.08212 -6.7239,3.11228 -22.5682,3.0999 -13.8404,-0.0108 -18.497,-0.46959 -34.5,-3.39893 -23.4809,-4.29818 -36.0835,-4.66792 -43.4875,-1.27585 -5.9934,2.74578 -9.0971,5.49802 -11.5146,10.21075 -5.4071,10.54079 -2.4446,25.5072 7.2231,36.49022 5.3078,6.03006 10.806,8.64584 25.1123,11.94731 20.4128,4.71065 45.9374,12.90068 82.4073,26.44178 46.5078,17.26815 63.9449,22.36292 83.7594,24.4727 6.7669,0.72053 25.6472,-0.32431 32.5,-1.79854 z m -34,-9.69509 c -17.1517,-1.96369 -33.2734,-6.93594 -86.645,-26.72292 -28.5757,-10.59417 -52.5267,-18.22072 -70.855,-22.5619 -17.5202,-4.14977 -18.3881,-4.48512 -22.6581,-8.75518 -7.3888,-7.38878 -10.3969,-19.01385 -6.4704,-25.0057 4.6707,-7.12754 13.617,-7.73105 41.6285,-2.80819 23.0392,4.04901 45.5907,5.08233 56.2713,2.57838 16.4407,-3.8543 26.0509,-12.44667 33.3935,-29.85653 8.4011,-19.91988 11.8206,-41.89845 11.0075,-70.74981 -1.1939,-42.36335 -11.7389,-86.13442 -30.4754,-126.5 -6.3646,-13.71186 -7.0965,-17.67798 -4.3908,-23.79448 3.1121,-7.0356 9.0427,-9.44054 14.4643,-5.86556 4.5543,3.00309 7.3367,7.67979 14.2243,23.90855 14.7132,34.66778 28.1879,73.76453 31.0218,90.00977 2.2673,12.99646 4.6683,16.24172 12.0165,16.24172 4.6696,0 8.5999,-3.97756 11.1468,-11.2806 2.5646,-7.35397 2.2965,-28.35023 -0.7179,-56.2194 -1.6633,-15.37794 -2.3919,-28.02005 -2.4207,-42 -0.039,-18.97161 0.077,-20.22055 2.2491,-24.28923 6.3057,-11.809 19.5072,-9.91021 22.1647,3.18798 1.3966,6.88389 2.7013,26.34471 4.5321,67.60125 2.6684,60.13136 3.4552,68.04618 7.5645,76.10122 2.8608,5.60747 9.1995,7.25893 13.7764,3.58921 2.4998,-2.00435 6.3685,-11.01086 8.7323,-20.32946 1.2999,-5.12432 4.6548,-24.96435 7.4552,-44.08896 8.6065,-58.77417 11.9276,-72.56773 18.5112,-76.88147 5.0557,-3.31261 11.4733,2.43252 11.4733,10.27105 0,2.11916 -1.1065,11.72473 -2.4588,21.34571 -9.192,65.39569 -10.7267,106.3925 -4.5225,120.81459 5.2881,12.29249 16.1668,13.73644 21.341,2.83263 0.8873,-1.86993 5.1982,-17.96967 9.5796,-35.7772 12.6534,-51.42659 18.4824,-70.19868 22.8207,-73.4926 4.805,-3.64826 13.24,-0.13685 13.24,5.51167 0,3.8812 -8.2439,59.1132 -12.5532,84.10361 -16.7655,97.22538 -41.9063,156.52384 -76.9468,181.4913 -12.8919,9.18591 -29.8042,15.71992 -45.2774,17.49285 -9.7869,1.12139 -11.6077,1.11301 -22.2226,-0.1023 z m 484.3252,117.02268 c -37.7765,-4.40169 -69.6873,-19.45196 -92.1511,-43.46187 -23.5069,-25.12469 -37.2022,-57.62354 -43.8025,-103.94266 -1.5299,-10.73679 -1.7499,-26.39536 -2.09,-148.75 L 2069.9016,163 H 2115.4508 2161 l 0.018,98.75 c 0.01,54.3125 0.4629,107.975 1.0068,119.25 3.5038,72.64206 16.7869,105.0283 49.4752,120.62769 14.352,6.84901 33.3397,9.64604 55.5,8.17557 13.6846,-0.90807 24.283,-3.69255 36,-9.45816 8.0481,-3.96025 10.8755,-6.06321 18.5,-13.7599 5.9697,-6.0262 10.4632,-11.68462 13.3458,-16.80546 8.5595,-15.20578 14.8682,-37.6281 18.8141,-66.86836 1.4624,-10.83707 1.7235,-26.83992 2.0583,-126.16138 L 2356.1017,163 H 2400.5509 2445 V 374.5 586 h -44.5 -44.5 v -28.5 c 0,-15.675 -0.3574,-28.5 -0.7943,-28.5 -0.4368,0 -3.6993,3.92722 -7.25,8.72715 -8.7129,11.77851 -23.6047,27.12926 -33.4064,34.43599 -15.724,11.72145 -36.5894,20.19907 -57.5493,23.38229 -10.2932,1.56325 -36.6703,1.75785 -48.6748,0.3591 z M 1188,420 V 248 H 1154.5 1121 V 202.5 157 h 33.5 33.5 V 86.5 16 h 51 51 V 86.5 157 h 33.5 33.5 v 45.5 45.5 h -33.5 -33.5 v 172 172 h -51 -51 z m 1419,-6 V 242 H 2573.5 2540 V 202.5 163 h 33.5 33.5 V 92.5 22 h 45 45 V 92.5 163 h 33 33 v 39.5 39.5 h -33 -33 v 172 172 h -45 -45 z"
             style="fill:#000000" />
          <path
             id="path4811"
             d="M 266.73077,600.6401 C 195.09984,595.15105 134.17471,565.82818 83.358257,512.38414 42.664857,469.58657 18.227099,422.36913 6.2784036,363.45424 0.31727584,334.06196 0.2553032,273.78286 6.1547834,243.21244 17.849693,182.6108 42.620994,136.76635 87.935909,91.85943 132.67124,47.526874 174.27959,24.964738 235.95414,11.59651 c 18.08037,-3.9189976 27.6456,-4.667019 59.50148,-4.6531375 42.44278,0.018486 58.27799,2.4180127 93.68432,14.1960365 100.82195,33.53871 178.40647,123.497151 196.6282,227.988361 4.6366,26.58823 4.18183,85.28238 -0.86242,111.30373 -8.62745,44.5059 -27.65674,88.61668 -52.468,121.6233 -16.57674,22.05217 -51.01589,55.45823 -71.18394,69.04864 -57.38817,38.67142 -121.90576,55.1013 -194.52301,49.53666 z m 67.153,-118.02291 c 53.13743,-10.97583 98.76856,-48.29286 122.88892,-100.49824 19.46127,-42.12135 22.29134,-100.71327 6.90143,-142.88261 -10.45482,-28.64686 -19.15082,-41.80317 -43.86035,-66.35697 -19.83227,-19.70726 -25.32889,-23.9127 -42.28714,-32.35361 -44.40598,-22.10293 -90.59691,-25.23922 -138.49483,-9.40358 -48.56674,16.05676 -91.2267,56.58236 -109.46738,103.99048 -8.25609,21.45788 -10.56786,35.71673 -10.52583,64.92272 0.0584,40.59171 8.64238,71.01404 28.60939,101.39403 26.27683,39.98046 65.60409,68.83954 109.48364,80.34116 18.86525,4.94492 54.98228,5.34331 76.75215,0.84662 z"
             style="opacity:1;fill:#ffffff;fill-opacity:1;stroke:#000000;stroke-width:4.32377958;stroke-miterlimit:4;stroke-dasharray:none;stroke-dashoffset:0;stroke-opacity:1" />
          <path
             id="path4821"
             d="M 652.4645,443.79576 V 157.57313 h 49.2426 49.2426 v 17.44009 c 0,9.59204 0.41742,17.44008 0.92759,17.44008 0.51017,0 6.92555,-4.19287 14.2564,-9.3175 16.50468,-11.5376 38.07793,-21.62177 61.96197,-28.96341 17.01834,-5.23123 20.84576,-5.62084 56.21943,-5.72282 43.02613,-0.12404 58.50007,2.44278 88.09744,14.61365 30.69697,12.62303 56.81587,31.70172 79.55987,58.11494 69.572,80.79575 76.3961,196.8053 16.8028,285.64854 -11.2669,16.797 -42.4062,47.61372 -59.3018,58.68742 -43.27108,28.36072 -93.34978,40.37046 -147.17347,35.29472 -37.81896,-3.56644 -67.77951,-14.1346 -96.31403,-33.9734 -6.96453,-4.84215 -13.1968,-8.26986 -13.84949,-7.61717 -0.65269,0.65269 -1.18671,39.34972 -1.18671,85.99342 v 84.8067 h -49.2426 -49.2426 z m 257.22678,55.38231 c 44.50559,-11.59224 82.20913,-49.80604 92.59262,-93.84577 3.9257,-16.64977 3.9209,-48.67966 -0.01,-64.20717 -11.18743,-44.20025 -48.48655,-80.75645 -93.33731,-91.47891 -18.66313,-4.46179 -53.92539,-3.43911 -70.1511,2.03453 -35.99103,12.14136 -67.40256,45.34342 -78.87486,83.37093 -5.18914,17.20058 -5.18803,58.72141 0.002,75.91568 13.02707,43.15765 48.45314,78.28849 88.79396,88.054 16.14011,3.90711 46.28863,3.98459 60.98486,0.15676 z"
             style="opacity:1;fill:#ffffff;fill-opacity:1;stroke:#000000;stroke-width:8.87142372;stroke-miterlimit:4;stroke-dasharray:none;stroke-dashoffset:0;stroke-opacity:1" />
          <path
             id="path4823"
             d="M 1187.9778,419.17446 V 247.85123 h -32.8284 -32.8284 v -45.13905 -45.13905 h 32.8284 32.8284 V 86.786884 16.000641 h 50.2685 50.2685 v 70.786243 70.786246 h 33.8543 33.8543 v 45.13905 45.13905 h -33.8543 -33.8543 v 171.32323 171.32322 h -50.2685 -50.2685 z"
             style="opacity:1;fill:#ffffff;fill-opacity:1;stroke:#000000;stroke-width:8.87142372;stroke-miterlimit:4;stroke-dasharray:none;stroke-dashoffset:0;stroke-opacity:1" />
          <path
             id="path4825"
             d="m 1677.3262,594.66652 c -45.7152,-4.15868 -92.4792,-21.08977 -132.3082,-47.90273 -19.1833,-12.91422 -52.9586,-46.27447 -69.1942,-68.34379 -23.039,-31.31748 -40.7004,-71.38442 -50.1903,-113.86277 -4.0977,-18.34184 -4.7524,-26.85251 -4.7159,-61.30807 0.032,-29.87058 0.9575,-44.56952 3.6539,-58.00348 11.4629,-57.11086 38.0543,-106.75557 79.508,-148.437274 40.7914,-41.015724 86.9541,-66.047752 145.7929,-79.057165 28.3258,-6.26291 85.6206,-6.813349 112.6025,-1.081787 58.7138,12.472144 106.8958,38.354705 147.7278,79.35682 42.515,42.692206 68.3996,89.435206 81.2346,146.695526 5.0887,22.70205 6.1185,77.30963 1.9926,105.66642 -3.972,27.29921 -15.3915,63.47133 -27.9257,88.4567 -26.6115,53.04659 -76.476,102.67485 -130.1913,129.5743 -45.957,23.01425 -103.1338,33.2372 -157.9867,28.2473 z m 75.8,-104.79437 c 17.9306,-2.59148 40.2593,-13.15576 54.0915,-25.59206 37.2642,-33.50375 59.9002,-95.6593 78.4462,-215.40297 7.3269,-47.30702 7.729,-60.92294 1.9692,-66.68269 -5.0893,-5.08937 -21.5179,-5.63767 -28.2221,-0.94191 -5.176,3.62545 -13.628,28.89851 -26.2844,78.59554 -7.5853,29.7846 -8.1128,31.06154 -9.7474,23.59542 -2.1768,-9.94307 -0.1577,-45.70688 4.9054,-86.88663 5.3439,-43.46416 5.2069,-51.39136 -1.004,-58.093 -6.7343,-7.26644 -14.3848,-8.88576 -22.8681,-4.84032 -11.7988,5.62645 -14.6193,15.11025 -25.6305,86.18283 -5.7919,37.38398 -9.6766,55.27339 -10.0218,46.15134 -1.6194,-42.79944 -7.0311,-125.76912 -8.5903,-131.7029 -5.769,-21.95441 -30.9612,-25.95806 -43.0756,-6.84575 -3.9153,6.17689 -4.0957,8.83259 -3.0255,44.5265 0.6259,20.87681 1.6378,46.72918 2.2487,57.44971 l 1.1106,19.49186 -6.3617,-20.51775 c -6.6274,-21.3748 -26.2957,-72.47913 -32.8935,-85.46767 -10.466,-20.60354 -35.0105,-23.32555 -43.7755,-4.85475 -5.0914,10.72942 -3.9541,17.86289 6.9996,43.90445 28.6886,68.20497 34.4137,137.62787 14.8052,179.53019 -8.6545,18.49433 -16.2489,22.86697 -39.4034,22.68754 -9.592,-0.0743 -28.5597,-1.77706 -42.1504,-3.78384 -27.0135,-3.98878 -38.0275,-2.81487 -44.9064,4.78621 -8.8222,9.74842 -7.1424,29.85729 3.5159,42.0869 5.9449,6.82135 9.3464,8.3579 34.2983,15.4934 15.2344,4.35658 42.4718,13.16583 60.5274,19.57609 84.3622,29.95106 93.9067,32.05425 125.0426,27.55426 z"
             style="opacity:1;fill:#00b8b0;fill-opacity:1;stroke:#000000;stroke-width:8.87142372;stroke-miterlimit:4;stroke-dasharray:none;stroke-dashoffset:0;stroke-opacity:1" />
          <path
             id="path4827"
             d="m 2205.6583,594.53851 c -69.635,-9.60487 -114.1601,-53.90163 -128.9937,-128.33217 -3.7036,-18.58332 -4.1834,-32.66055 -5.5022,-161.41835 l -1.4448,-141.05954 h 45.2346 45.2347 l 0.9261,123.61945 c 0.962,128.41766 1.3801,135.08611 10.4071,165.97649 7.2722,24.88547 24.2228,43.69616 46.9844,52.14036 8.6081,3.19349 16.0622,3.98781 37.4223,3.98781 23.1985,0 28.3674,-0.64288 39.6801,-4.93525 26.2935,-9.97658 43.2161,-32.14324 53.0074,-69.43394 4.8289,-18.39078 5.3897,-25.08345 6.9209,-82.5916 0.9164,-34.41853 1.731,-90.97059 1.8103,-125.67123 l 0.1441,-63.09209 h 43.0873 43.0873 V 374.0354 584.34236 h -43.0873 -43.0873 v -26.55198 c 0,-14.6036 -0.808,-27.05143 -1.7957,-27.66185 -0.9877,-0.6104 -7.5657,5.7811 -14.6178,14.20339 -20.7405,24.77038 -39.4876,37.81352 -65.8791,45.83496 -16.0248,4.8706 -50.2996,7.02531 -69.5387,4.37163 z"
             style="opacity:1;fill:#ffffff;fill-opacity:1;stroke:#000000;stroke-width:8.87142372;stroke-miterlimit:4;stroke-dasharray:none;stroke-dashoffset:0;stroke-opacity:1" />
          <path
             id="path4829"
             d="M 2607.8062,413.01913 V 241.69591 h -33.8543 -33.8543 v -38.98373 -38.98373 h 33.8543 33.8543 V 92.942209 22.155967 h 44.1132 44.1131 v 70.786242 70.786241 h 32.8284 32.8284 v 38.98373 38.98373 h -32.8284 -32.8284 v 171.32322 171.32323 h -44.1131 -44.1132 z"
             style="opacity:1;fill:#ffffff;fill-opacity:1;stroke:#000000;stroke-width:8.87142372;stroke-miterlimit:4;stroke-dasharray:none;stroke-dashoffset:0;stroke-opacity:1" />
          <path
             id="path4831"
             d="M 249.46504,595.65189 C 172.46625,584.64081 105.0769,542.37674 56.405714,474.57239 17.762396,420.73795 0.0433202,350.49758 5.9955352,274.7409 10.479533,217.67089 28.145537,170.01212 60.449713,127.83617 75.275705,108.47952 112.24052,72.722642 131.31361,59.287955 c 43.79593,-30.848944 92.6897,-46.770317 149.9204,-48.818877 57.77089,-2.0678949 94.7512,5.491446 142.45756,29.120504 32.4282,16.061758 55.35096,33.009568 81.5113,60.26492 40.93277,42.646118 68.85082,97.234318 77.63304,151.796048 2.81706,17.50162 2.84583,83.47444 0.0439,100.84122 -7.17436,44.46914 -26.5632,91.40014 -51.85069,125.50536 -13.87384,18.71165 -45.34561,50.51733 -63.4634,64.1367 -34.59356,26.00447 -73.01281,42.65865 -118.76403,51.48247 -24.13648,4.65509 -73.88957,5.67463 -99.33673,2.03559 z m 84.08454,-109.98098 c 62.9834,-11.57811 118.99403,-65.82095 136.46022,-132.15326 6.58827,-25.02066 7.65107,-67.91123 2.31992,-93.62254 -7.64114,-36.85214 -24.8271,-65.74299 -57.0309,-95.87311 -34.49779,-32.27643 -77.63279,-47.44881 -127.58077,-44.87549 -79.89961,4.11644 -147.57693,59.00066 -167.61454,135.93025 -4.08382,15.67885 -4.23073,68.39681 -0.24302,87.20632 11.61299,54.77693 52.41892,105.68659 104.55845,130.44753 24.8066,11.7806 39.40317,14.91331 70.14691,15.05486 14.74506,0.0679 32.28774,-0.88366 38.98373,-2.11456 z"
             style="opacity:1;fill:#ffffff;fill-opacity:1;stroke:#000000;stroke-width:8.87142372;stroke-miterlimit:4;stroke-dasharray:none;stroke-dashoffset:0;stroke-opacity:1" />
          <path
             style="opacity:1;fill:#00b8b0;fill-opacity:1;stroke:#000000;stroke-width:2.16188979;stroke-miterlimit:4;stroke-dasharray:none;stroke-dashoffset:0;stroke-opacity:1"
             d="m 1835.792,1493.4194 c -14.4623,-2.0425 -31.5222,-7.1665 -77,-23.1274 -31.5267,-11.0647 -48.0677,-16.5107 -72.5154,-23.8754 -22.8624,-6.8871 -26.391,-8.1084 -29.8617,-10.3356 -8.0148,-5.143 -13.9683,-17.9089 -13.2401,-28.3899 0.6549,-9.4253 4.7282,-14.7526 12.8672,-16.8283 4.5213,-1.1531 18.134,-0.6945 30.25,1.0191 22.9287,3.2429 43.1797,4.6944 53.6125,3.8426 8.2143,-0.6706 12.1217,-1.5681 17.1071,-3.929 13.4191,-6.355 24.114,-29.215 28.3667,-60.633 1.2832,-9.4798 1.2829,-37.3351 -5e-4,-48.25 -4.0767,-34.6701 -11.2474,-60.9992 -27.5074,-101 -5.9873,-14.7292 -6.9862,-18.2424 -7.0373,-24.75 -0.039,-4.9407 0.056,-5.4545 1.6028,-8.7216 2.1793,-4.6022 4.4168,-7.2387 7.674,-9.0428 2.4462,-1.3549 3.0997,-1.4856 7.4321,-1.4856 4.3113,0 5.0634,0.1485 8.1438,1.6076 3.8026,1.8012 8.5033,5.9758 10.8545,9.6399 6.46,10.067 29.3262,70.3358 39.042,102.9034 1.57,5.2627 1.7624,5.6316 2.8014,5.3708 0.9553,-0.2398 1.2019,0.01 1.7161,1.7242 0.3302,1.1023 0.7866,2.0041 1.0141,2.0041 0.2275,0 0.669,-1.0141 0.9812,-2.2537 0.5285,-2.0992 0.7011,-2.2751 2.5157,-2.5653 l 1.9483,-0.3115 -0.2625,-2.3097 c -1.1054,-9.7262 -3.3623,-70.6018 -3.4409,-92.8098 -0.072,-20.2065 -0.1012,-19.9945 3.5131,-25.1057 8.714,-12.3228 25.1443,-11.2804 31.6553,2.0084 0.8347,1.7035 1.7357,4.3348 2.0021,5.8473 1.4461,8.2074 5.5981,70.2787 7.7656,116.0917 0.4123,8.7129 0.9579,16.3896 1.2125,17.0593 0.6393,1.6815 2.8987,3.349 4.5377,3.349 1.6135,0 3.7487,-1.5545 4.6963,-3.4191 1.757,-3.4571 4.913,-20.2575 10.8167,-57.5809 5.8429,-36.9386 8.5416,-50.7909 11.7863,-60.5 2.7859,-8.3361 5.097,-11.3901 10.4278,-13.7798 5.8505,-2.6226 10.3347,-1.9179 15.0151,2.3597 4.514,4.1256 4.9365,5.3079 5.1529,14.4201 0.1998,8.4108 -0.3476,14.7933 -3.8591,45 -3.6869,31.7145 -5.1774,51.267 -5.2407,68.75 -0.038,10.5449 0.1002,13.1213 0.8854,16.4722 0.835,3.5636 1.1869,4.2298 3.4215,6.4762 2.4715,2.4844 2.4973,2.4958 3.3193,1.4613 0.4557,-0.5734 1.356,-1.3133 2.0008,-1.644 2.3537,-1.2076 3.3224,-4.2675 12.5552,-39.6587 8.4356,-32.3354 14.5173,-51.8934 19.0208,-61.1689 2.2702,-4.6755 2.6167,-5.1255 4.5394,-5.8948 5.0356,-2.0149 14.3427,-1.9085 18.727,0.2139 3.5698,1.7281 3.9919,3.3561 3.9496,15.2322 -0.04,11.1826 -0.8751,18.6807 -5.2366,47.0106 -17.8083,115.6739 -39.4837,177.5796 -73.808,210.7988 -15.4548,14.9571 -36.7891,25.2602 -58.4197,28.2129 -8.3688,1.1424 -21.2719,1.3747 -27.5,0.4952 z m 22.6447,-6.7857 c 17.101,-1.8628 33.5634,-8.0618 47.7185,-17.9686 6.1094,-4.2758 16.6364,-14.8121 21.9829,-22.0026 16.479,-22.162 29.9823,-53.4808 41.1017,-95.3291 8.2202,-30.9368 14.7618,-66.4353 23.7576,-128.9209 2.7663,-19.2156 2.8318,-20.1 1.6464,-22.25 -1.6823,-3.051 -6.0801,-4.8404 -9.8494,-4.0074 -6.3221,1.397 -10.1508,12.4067 -25.3019,72.7574 -9.3622,37.2922 -10.0121,39.3342 -13.5307,42.513 -6.4077,5.7889 -14.842,0.9942 -18.3637,-10.4394 -1.8459,-5.9929 -2.5565,-13.7831 -2.5518,-27.9742 0.01,-19.3881 1.8472,-42.5544 5.7886,-72.8494 0.9481,-7.2875 2.4114,-18.5375 3.2517,-25 1.6487,-12.6794 1.659,-16.1696 0.057,-19.2862 -3.0437,-5.9199 -8.3629,-7.0625 -12.3473,-2.6523 -5.3547,5.9271 -8.3146,19.1459 -16.4996,73.6885 -4.9215,32.7961 -6.9589,43.8395 -9.5931,52 -3.1256,9.6826 -6.5754,14.8134 -10.4488,15.5401 -4.1036,0.7698 -7.8763,-1.6275 -10.1561,-6.4534 -3.5338,-7.4804 -4.3711,-16.2312 -7.0649,-73.8367 -2.4686,-52.7886 -3.5181,-66.522 -5.4834,-71.75 -1.5049,-4.003 -5.0463,-7.191 -8.8747,-7.9888 -2.3672,-0.4934 -6.5594,0.9016 -9.0078,2.9974 -1.346,1.1521 -2.7745,3.1657 -3.9866,5.6193 l -1.8889,3.8239 0.028,18.7741 c 0.028,18.8088 0.2058,22.0897 2.4762,45.7741 2.4576,25.6373 2.8029,43.5859 0.985,51.2035 -1.5516,6.5014 -5.5637,11.9221 -9.6358,13.0186 -2.4216,0.6521 -6.2088,0.018 -8.0347,-1.3452 -2.5642,-1.9145 -3.5033,-4.5322 -6.3173,-17.6102 -1.746,-8.1144 -3.9574,-15.7508 -8.4753,-29.2667 -8.3142,-24.8728 -21.8481,-59.2151 -28.1514,-71.4342 -7.0041,-13.5775 -16.6761,-15.7009 -22.25,-4.8848 -3.3133,6.4295 -2.6807,10.2789 4.1812,25.4413 16.8625,37.2603 26.4706,73.9669 29.4806,112.6277 0.7718,9.9132 0.7762,32.4781 0.01,40.25 -2.5701,25.9973 -9.9782,47.8594 -20.3611,60.0878 -5.6084,6.6052 -15.117,11.5882 -25.624,13.4284 -9.2055,1.6121 -30.4451,0.7013 -47.8095,-2.0503 -21.6768,-3.4349 -24.6453,-3.8 -31.5,-3.874 -7.8866,-0.085 -10.6815,0.5531 -13.846,3.1615 -5.742,4.733 -5.4628,14.5921 0.673,23.7659 2.7872,4.1671 5.4677,6.6716 8.8344,8.2541 1.2636,0.594 8.8317,2.7269 16.818,4.7398 21.8779,5.5143 39.1953,10.9602 66.2706,20.8405 43.7725,15.9735 56.2008,20.2765 68.9233,23.8626 16.3913,4.6204 30.9426,6.3151 42.9714,5.0049 z"
             id="path930"
             transform="translate(-114.29667,-1007.1877)" />
          <path
             style="opacity:1;fill:#ffffff;fill-opacity:1;stroke:#000000;stroke-width:2.16188979;stroke-miterlimit:4;stroke-dasharray:none;stroke-dashoffset:0;stroke-opacity:1"
             d="m 1806.542,1598.1417 c -28.3343,-1.1671 -55.2917,-6.545 -82.4796,-16.4542 -24.9229,-9.0837 -52.721,-23.9297 -69.7704,-37.2617 -8.9614,-7.0075 -16.2742,-13.6936 -29.7676,-27.2166 -21.3082,-21.3549 -31.9254,-34.5057 -43.8361,-54.2967 -16.7286,-27.7966 -30.0608,-62.4794 -37.1908,-96.75 -3.1279,-15.0342 -3.6121,-23.8409 -3.3148,-60.2894 0.3146,-38.5765 0.9103,-44.5796 6.6934,-67.4606 12.7263,-50.351 37.7849,-94.0137 75.6244,-131.7699 32.5945,-32.5228 66.2644,-53.4903 108.7915,-67.7483 11.3105,-3.7921 28.4545,-8.413 37.7808,-10.1832 22.9936,-4.3646 66.7968,-5.4152 93.9692,-2.2538 27.1066,3.1536 64.4611,15.5415 92.25,30.5929 24.8826,13.4773 44.353,28.1527 65.7811,49.5811 34.9246,34.925 57.5688,71.1185 72.125,115.2812 4.1045,12.4529 7.5029,25.5231 9.0353,34.75 3.7092,22.3338 4.4415,67.3028 1.5137,92.9569 -3.0925,27.0974 -15.052,66.3122 -28.2489,92.6271 -23.5804,47.0201 -67.7334,93.088 -115.4345,120.4409 -32.0593,18.3835 -70.3827,30.2447 -110.5641,34.2198 -7.5468,0.7466 -28.1413,1.8123 -32.2076,1.6666 -1.1,-0.039 -5.9375,-0.2339 -10.75,-0.4321 z m 48,-94.9834 c 18.1232,-1.3965 30.096,-4.5721 45.25,-12.0018 11.8348,-5.8023 21.1105,-12.3431 29.7615,-20.9863 25.864,-25.8408 44.717,-67.4227 59.5115,-131.2577 5.8947,-25.4344 12.9169,-63.9114 17.429,-95.5 4.4757,-31.3327 5.0118,-42.0668 2.5393,-50.8386 -0.7569,-2.6853 -3.4467,-6.4285 -5.7413,-7.9897 -1.1,-0.7485 -3.575,-1.8808 -5.5,-2.5162 -2.9854,-0.9856 -4.5293,-1.1555 -10.5,-1.1555 -5.8394,0 -7.5853,0.1842 -10.5301,1.1106 -6.3732,2.005 -8.9493,4.7715 -12.8362,13.7851 -4.405,10.2147 -10.7548,30.9465 -18.1795,59.3543 -2.0484,7.8375 -3.8307,14.475 -3.9606,14.75 -0.2699,0.5715 0.058,-6.9447 0.7951,-18.25 0.7605,-11.656 2.2827,-27.3472 4.4625,-46 3.3876,-28.9871 3.6568,-32.022 3.7033,-41.75 0.041,-8.5252 -0.07,-9.8657 -1.0756,-13.0646 -2.8154,-8.9522 -11.6752,-16.064 -20.6603,-16.5841 -4.7454,-0.2747 -8.1647,0.4423 -12.845,2.6934 -12.7355,6.1255 -16.3248,17.1776 -26.4189,81.347 -1.894,12.0405 -3.4896,21.7155 -3.5457,21.5 -0.056,-0.2154 -0.4614,-6.8042 -0.9004,-14.6417 -1.8302,-32.6699 -4.6195,-71.7588 -5.7683,-80.8356 -1.5177,-11.9916 -8.4625,-21.2375 -18.7593,-24.9751 -9.8808,-3.5865 -20.2617,-1.0857 -28.2721,6.8107 -4.2593,4.1989 -6.9532,8.5772 -8.3167,13.5172 -0.7802,2.8268 -0.8801,5.2109 -0.7956,18.9828 0.053,8.6625 0.4456,25.0875 0.8721,36.5 0.4266,11.4125 0.7623,21.5375 0.746,22.5 l -0.03,1.75 -0.9521,-2.5 c -0.5237,-1.375 -3.2945,-8.8 -6.1575,-16.5 -10.6973,-28.771 -19.7512,-50.3912 -23.5823,-56.3135 -4.4812,-6.9272 -11.3062,-12.3053 -18.4932,-14.5727 -4.78,-1.5081 -12.1974,-1.4776 -16.4597,0.068 -7.9528,2.8832 -13.7131,9.2256 -16.6987,18.3863 -3.1846,9.7714 -1.7989,16.6336 8.5745,42.4602 7.1826,17.8825 10.3314,26.7713 14.1096,39.8299 16.2301,56.0968 15.9921,107.3293 -0.6486,139.5741 -7.4222,14.3822 -13.9772,17.3399 -36.8771,16.6395 -10.6103,-0.3246 -23.7377,-1.541 -38.5,-3.5676 -23.1079,-3.1723 -33.4563,-2.909 -41.6488,1.0599 -3.8884,1.8837 -8.1553,6.072 -10.2431,10.0546 -2.5778,4.9169 -3.482,8.9098 -3.4832,15.3817 0,12.0927 4.5327,22.7551 13.2132,31.066 5.3723,5.1435 9.1039,6.6993 33.3208,13.892 21.8604,6.4929 37.3987,11.5335 61.0911,19.8179 65.8476,23.0246 81.5908,27.6766 98,28.9578 6.9359,0.5416 8.1158,0.5425 15,0.012 z"
             id="path932"
             transform="translate(-114.29667,-1007.1877)" />
          <path
             style="opacity:1;fill:#ffffff;fill-opacity:1;stroke:#000000;stroke-width:4.32377958;stroke-miterlimit:4;stroke-dasharray:none;stroke-dashoffset:0;stroke-opacity:1"
             d="m 772.07829,1451.1625 v -281.5 h 43.85642 43.85642 l 0.52754,15.6969 c 0.49389,14.6957 0.66956,15.8118 2.75436,17.5 1.22475,0.9917 2.79587,1.8031 3.49137,1.8031 0.6955,0 7.50816,-4.0953 15.13922,-9.1006 16.89262,-11.0803 30.55643,-18.0519 48.37467,-24.6822 26.11141,-9.7162 26.14295,-9.7207 69,-9.6926 42.55481,0.028 48.51201,0.6791 69.21941,7.5678 33.1767,11.0368 58.2423,26.38 82.3285,50.3952 34.3568,34.2557 56.0337,76.1326 64.9695,125.5124 2.6545,14.6691 3.1872,50.2472 0.9976,66.6325 -4.2649,31.9162 -15.1549,62.9151 -31.8425,90.6412 -8.3511,13.8754 -15.0514,22.0651 -31.6725,38.7134 -15.7963,15.8221 -26.937,24.9674 -39.7342,32.6172 -38.5026,23.0159 -81.5843,33.1686 -128.39801,30.2588 -36.66595,-2.2791 -67.32206,-11.6481 -94.40577,-28.8518 -23.13993,-14.6987 -24.88284,-15.3511 -28.0594,-10.503 -1.48011,2.2589 -1.69603,10.7574 -2.17225,85.5 l -0.52878,82.9917 h -43.8508 -43.8508 z m 247.28111,61.0103 c 23.6081,-4.117 45.9432,-16.5734 66.243,-36.9441 12.5414,-12.5852 18.7536,-20.9668 25.8552,-34.8844 10.0449,-19.6858 13.0302,-35.4692 12.3288,-65.1818 -0.4092,-17.3368 -0.816,-21.3099 -3.0546,-29.8372 -12.1377,-46.234 -55.0624,-86.0972 -101.4133,-94.1801 -11.1342,-1.9416 -40.5592,-1.9552 -53.24021,-0.024 -15.4946,2.3591 -27.1175,7.0915 -42.46524,17.2905 -22.86794,15.1964 -42.71507,40.4658 -51.929,66.116 -4.46362,12.4261 -5.8852,23.4494 -5.8852,45.6353 0,22.1872 1.42177,33.2109 5.88577,45.6354 16.37943,45.5881 56.27504,80.4887 99.20763,86.7867 9.95169,1.4598 39.15725,1.2117 48.46715,-0.4118 z"
             id="path1002"
             transform="translate(-114.29667,-1007.1877)" />
          <path
             style="opacity:1;fill:#ffffff;fill-opacity:1;stroke:#000000;stroke-width:4.32377958;stroke-miterlimit:4;stroke-dasharray:none;stroke-dashoffset:0;stroke-opacity:1"
             d="m 1307.0783,1421.1625 v -171.5 h -33 -33 v -40 -40 h 33 33 v -71 -71 h 45.5 45.5 v 71 71 h 34 34 v 40 40 h -34 -34 v 171.5 171.5 h -45.5 -45.5 z"
             id="path1004"
             transform="translate(-114.29667,-1007.1877)" />
          <path
             style="opacity:1;fill:#ffffff;fill-opacity:1;stroke:#000000;stroke-width:6.11474752;stroke-miterlimit:4;stroke-dasharray:none;stroke-dashoffset:0;stroke-opacity:1"
             d="m 2325.4003,1597.2965 c -1.1668,-0.2286 -6.8943,-1.1916 -12.728,-2.1399 -65.3711,-10.6267 -110.3629,-62.9026 -118.7381,-137.9615 -1.5672,-14.0456 -4.1977,-161.6438 -4.2634,-239.2248 l -0.035,-41.3658 h 39.4618 39.4619 l 0.8051,14.4957 c 0.4428,7.9727 1.1299,59.6798 1.5269,114.9049 0.397,55.225 1.3447,106.9635 2.106,114.9744 1.9144,20.1441 7.6137,42.6464 14.3058,56.4828 10.4501,21.6062 32.2008,38.7199 54.2666,42.6976 12.171,2.1941 47.7376,1.8564 59.1475,-0.5614 20.1859,-4.2776 40.8066,-19.4144 51.8445,-38.0569 6.5459,-11.0557 14.0419,-31.4109 17.2503,-46.8431 3.7072,-17.8311 5.3116,-59.5674 6.4286,-167.2307 l 0.9427,-90.8633 h 37.9526 37.9525 v 205.061 205.061 h -38.1837 -38.1838 l -0.034,-20.8597 c -0.046,-28.2731 -1.7899,-35.0323 -8.5815,-33.2562 -1.4548,0.3804 -10.0844,8.621 -19.1768,18.3123 -29.3354,31.2677 -48.8745,41.6801 -85.6429,45.6387 -12.5807,1.3545 -32.7285,1.7453 -37.8859,0.7349 z"
             id="path1006"
             transform="translate(-114.29667,-1007.1877)" />
          <path
             style="opacity:1;fill:#ffffff;fill-opacity:1;stroke:#000000;stroke-width:6.11474752;stroke-miterlimit:4;stroke-dasharray:none;stroke-dashoffset:0;stroke-opacity:1"
             d="m 2727.5452,1415.6066 v -171.1198 h -33.9412 -33.9411 v -33.9155 -33.9156 l 33.5876,-0.3791 33.5876,-0.3792 0.3666,-71.0642 0.3666,-71.0642 h 38.8778 38.8778 v 71.4177 71.4178 h 32.5269 32.5269 v 33.9412 33.9411 h -32.5269 -32.5269 v 171.1198 171.1199 h -38.8909 -38.8908 z"
             id="path1008"
             transform="translate(-114.29667,-1007.1877)" />
          <path
             style="opacity:1;fill:#ffffff;fill-opacity:1;stroke:#000000;stroke-width:6.11474752;stroke-miterlimit:4;stroke-dasharray:none;stroke-dashoffset:0;stroke-opacity:1"
             d="m 1788.5074,1595.0628 c -41.4158,-4.671 -86.0604,-20.9712 -122.1447,-44.5962 -16.8952,-11.0617 -52.0802,-44.7673 -67.6798,-64.8342 -23.0084,-29.5975 -40.5055,-67.3499 -51.4627,-111.038 l -4.0789,-16.2634 v -48.0833 c 0,-54.3343 0.3687,-57.278 11.3807,-90.8723 16.4831,-50.2849 48.6169,-96.3723 92.0057,-131.9576 38.6026,-31.6598 92.4547,-54.3872 140.3617,-59.2372 18.7975,-1.903 59.7487,-1.9082 75.1942,-0.01 33.4797,4.1155 79.1622,21.0449 109.5644,40.6031 43.1074,27.7318 82.4681,71.7271 104.6951,117.0228 21.6425,44.1047 28.8884,80.6164 27.0832,136.4716 -1.1801,36.5128 -7.0294,64.4455 -20.7302,98.995 -28.7089,72.3952 -96.7542,136.4062 -170.781,160.6556 -37.3136,12.2231 -85.7911,17.3862 -123.4077,13.1437 z m 89.8025,-93.7868 c 4.6669,-1.2597 14.2129,-5.0412 21.2132,-8.4031 50.2768,-24.1459 79.0397,-81.1716 100.3164,-198.8886 11.8163,-65.3755 14.5734,-97.1032 9.1968,-105.8301 -5.034,-8.1706 -24.9904,-11.7172 -36.1455,-6.4238 -6.6222,3.1424 -12.7041,16.2014 -20.9944,45.0787 -3.5728,12.4451 -6.7572,23.2638 -7.0765,24.0416 -0.7943,1.9351 0.1606,-8.5332 4.2497,-46.5901 4.2099,-39.1804 4.3444,-48.9647 0.781,-56.8116 -3.6693,-8.0801 -11.2437,-13.5316 -19.9651,-14.3697 -12.6222,-1.2128 -23.3017,5.8977 -28.0916,18.7037 -3.2426,8.6693 -7.6439,28.629 -11.4294,51.8322 -1.5482,9.4897 -3.0248,17.4639 -3.2812,17.7204 -0.2565,0.2565 -1.2531,-12.909 -2.2146,-29.2567 -3.1309,-53.2318 -4.5567,-59.8167 -14.9221,-68.9177 -5.0573,-4.4404 -12.681,-7.3456 -19.3138,-7.36 -6.3104,-0.014 -18.6337,7.2786 -23.0347,13.6306 -5.7325,8.2739 -6.4435,14.2834 -5.6648,47.8798 l 0.6884,29.6985 -8.4369,-21.4237 c -4.6402,-11.7831 -10.9307,-26.7384 -13.9788,-33.234 -8.2784,-17.6418 -18.2258,-25.2453 -33.0274,-25.2453 -12.9691,0 -23.0779,8.4797 -26.743,22.4331 -2.3075,8.7852 -0.9964,14.3545 10.7279,45.5704 18.0887,48.1606 23.7164,75.0648 23.6401,113.0158 -0.044,22.0672 -0.4493,26.2594 -3.7373,38.6916 -5.1128,19.332 -11.3207,30.4005 -19.3461,34.4939 -8.2286,4.1971 -25.2034,4.2552 -59.1622,0.2027 -34.3142,-4.095 -43.6851,-2.8985 -52.8067,6.7422 -5.336,5.6397 -7.0315,11.0029 -7.0452,22.2849 -0.01,8.3163 0.6965,11.1715 4.7092,19.0292 6.697,13.1145 12.6543,17.1793 35.5315,24.2441 10.2778,3.1739 46.052,14.9254 79.4981,26.1144 33.4462,11.189 65.266,21.3278 70.7107,22.5307 12.5676,2.7766 42.8932,2.1255 55.1543,-1.1841 z"
             id="path1010"
             transform="translate(-114.29667,-1007.1877)" />
        </g>
      </g>
      <path
         transform="scale(0.26458333)"
         id="path922"
         d=""
         style="opacity:1;fill:#ffffff;fill-opacity:1;stroke:#000000;stroke-width:12.35365582;stroke-miterlimit:4;stroke-dasharray:none;stroke-dashoffset:0;stroke-opacity:1" />
    </g>
  </g>
</svg>
