<svg xmlns="http://www.w3.org/2000/svg" xmlns:xlink="http://www.w3.org/1999/xlink" viewBox="0 0 897.96 160"><defs><style>.cls-1{fill:url(#linear-gradient);}.cls-2{fill:url(#linear-gradient-2);}.cls-3{fill:url(#linear-gradient-3);}.cls-4{fill:url(#linear-gradient-4);}.cls-5{fill:url(#linear-gradient-5);}.cls-6{fill:url(#linear-gradient-6);}.cls-7{fill:url(#linear-gradient-7);}.cls-8{fill:url(#linear-gradient-8);}.cls-9{fill:#191346;}</style><linearGradient id="linear-gradient" x1="-0.42" y1="11.81" x2="150.74" y2="11.81" gradientUnits="userSpaceOnUse"><stop offset="0" stop-color="#7251a0"/><stop offset="1" stop-color="#bd65a7"/></linearGradient><linearGradient id="linear-gradient-2" x1="-0.42" y1="57.27" x2="150.74" y2="57.27" xlink:href="#linear-gradient"/><linearGradient id="linear-gradient-3" x1="-0.42" y1="57.29" x2="150.74" y2="57.29" xlink:href="#linear-gradient"/><linearGradient id="linear-gradient-4" x1="-0.42" y1="148.19" x2="150.74" y2="148.19" xlink:href="#linear-gradient"/><linearGradient id="linear-gradient-5" x1="-0.42" y1="148.19" x2="150.74" y2="148.19" xlink:href="#linear-gradient"/><linearGradient id="linear-gradient-6" x1="-0.42" y1="102.74" x2="150.74" y2="102.74" xlink:href="#linear-gradient"/><linearGradient id="linear-gradient-7" x1="-0.42" y1="11.88" x2="150.74" y2="11.88" xlink:href="#linear-gradient"/><linearGradient id="linear-gradient-8" x1="-0.42" y1="102.73" x2="150.74" y2="102.73" xlink:href="#linear-gradient"/></defs><title>softerrific-logo-gradient-main</title><g id="Layer_2" data-name="Layer 2"><g id="Layer_1-2" data-name="Layer 1"><path class="cls-1" d="M148.68,23.62H102.76a11.81,11.81,0,1,1,0-23.62h45.92a11.81,11.81,0,1,1,0,23.62Z"/><path class="cls-2" d="M103.22,69.08H57.3a11.81,11.81,0,0,1,0-23.62h45.92a11.81,11.81,0,1,1,0,23.62Z"/><path class="cls-3" d="M11.86,69.1a11.81,11.81,0,1,1,2.27-23.39,12.31,12.31,0,0,1,2.22.66,10.7,10.7,0,0,1,2,1.09,8.47,8.47,0,0,1,1.79,1.46,9.18,9.18,0,0,1,1.47,1.8,11,11,0,0,1,1.09,2,12.19,12.19,0,0,1,.7,2.22A11.9,11.9,0,0,1,11.86,69.1Z"/><path class="cls-4" d="M103.22,160H57.3a11.81,11.81,0,1,1,0-23.62h45.92a11.81,11.81,0,1,1,0,23.62Z"/><path class="cls-5" d="M11.86,160a9.38,9.38,0,0,1-2.32-.24,12.31,12.31,0,0,1-2.22-.66,10.16,10.16,0,0,1-2-1.09,10.74,10.74,0,0,1-1.79-1.46A10.92,10.92,0,0,1,2,154.75a12,12,0,0,1-1.08-2,11.37,11.37,0,0,1-.67-2.22,11.77,11.77,0,0,1,0-4.63A12.76,12.76,0,0,1,1,143.65a12,12,0,0,1,1.08-2,12.88,12.88,0,0,1,1.47-1.8,11.27,11.27,0,0,1,1.79-1.46,10.7,10.7,0,0,1,2-1.09,12.31,12.31,0,0,1,2.22-.66,11.79,11.79,0,0,1,10.63,19.94A11.93,11.93,0,0,1,11.86,160Z"/><path class="cls-6" d="M57.31,114.55A11.78,11.78,0,0,1,45.5,102.74a9.38,9.38,0,0,1,.24-2.32,12,12,0,0,1,.65-2.22,12.83,12.83,0,0,1,1.09-2A10.92,10.92,0,0,1,49,94.37a8.73,8.73,0,0,1,1.79-1.46,11.64,11.64,0,0,1,2-1.09A12.17,12.17,0,0,1,55,91.16a11.92,11.92,0,0,1,10.67,3.21,14.24,14.24,0,0,1,1.47,1.8,17.14,17.14,0,0,1,1.08,2,12.1,12.1,0,0,1,.67,2.22,12.59,12.59,0,0,1,.23,2.32,11.93,11.93,0,0,1-3.49,8.36,11.25,11.25,0,0,1-1.8,1.46,13.57,13.57,0,0,1-2,1.09,11.08,11.08,0,0,1-2.17.66A13,13,0,0,1,57.31,114.55Z"/><path class="cls-7" d="M57.31,23.6A9.3,9.3,0,0,1,55,23.36a11.44,11.44,0,0,1-2.23-.66,11,11,0,0,1-2-1.08A9.11,9.11,0,0,1,49,20.15a9.18,9.18,0,0,1-1.47-1.8,11,11,0,0,1-1.09-2,12,12,0,0,1-.65-2.22,9.18,9.18,0,0,1-.24-2.27A11.76,11.76,0,0,1,49,3.47a12.21,12.21,0,0,1,16.72,0,12,12,0,0,1,3.45,8.36,12.39,12.39,0,0,1-.23,2.27,12.1,12.1,0,0,1-.67,2.22,14,14,0,0,1-1.08,2,12.19,12.19,0,0,1-1.51,1.8A11.67,11.67,0,0,1,57.31,23.6Z"/><path class="cls-8" d="M148.68,114.54H102.76a11.81,11.81,0,1,1,0-23.62h45.92a11.81,11.81,0,0,1,0,23.62Z"/><path class="cls-9" d="M243.28,121.64q-7.87-3-11.88-8.07a17.65,17.65,0,0,1-4-11.2,25.64,25.64,0,0,1,.25-3,2.74,2.74,0,0,1,1.07-1.88,3.21,3.21,0,0,1,2.06-.75h16.77a4.81,4.81,0,0,1,2.44.5A6.3,6.3,0,0,1,251.67,99a9.26,9.26,0,0,0,4.06,4.94c2,1.3,4.86,1.94,8.45,1.94a25,25,0,0,0,10.95-2.06c2.79-1.38,4.48-3.27,5.07-5.69a6.28,6.28,0,0,0,.12-1.38c0-2.09-1.29-3.71-3.88-4.88s-7.25-2.5-14-4q-24.9-5.11-24.9-22a26.28,26.28,0,0,1,.75-6.13,28.56,28.56,0,0,1,12.57-18.46q10.08-6.69,26-6.69a41.11,41.11,0,0,1,17,3.38,31.14,31.14,0,0,1,11.7,8.57q4.18,5.19,4.19,10.45a16.27,16.27,0,0,1-.25,2.13,4.11,4.11,0,0,1-1,1.93,2.43,2.43,0,0,1-1.88.82H288.83a3.73,3.73,0,0,1-3.75-2.25,6,6,0,0,0-2.94-4.45,12.52,12.52,0,0,0-7.07-1.81,17.48,17.48,0,0,0-8.7,1.88,8.32,8.32,0,0,0-4.19,5.5,5.59,5.59,0,0,0-.13,1.38c0,2,1.15,3.61,3.44,4.81s6.4,2.44,12.33,3.7q14.15,2.63,20.65,7.88A17,17,0,0,1,305,92.36a27,27,0,0,1-.62,6.13q-2.76,12.89-13.46,19.52t-28.59,6.63A53.62,53.62,0,0,1,243.28,121.64Z"/><path class="cls-9" d="M320.3,118.57q-7.57-6.06-7.57-16.83a37.07,37.07,0,0,1,.37-5.25,60.13,60.13,0,0,1,2.38-11.26q3.63-13.64,13.14-20.9t25.15-7.26q13.39,0,21.21,6.2t7.82,17.2a32.2,32.2,0,0,1-.37,4.76Q381,92.1,379.92,96.49q-3.75,13.77-13,21t-25.4,7.19Q327.88,124.64,320.3,118.57Zm31.78-12.88q3.32-3.19,5.07-9.83a90.79,90.79,0,0,0,2.13-10,33.78,33.78,0,0,0,.37-4.75c0-2.76-.62-4.82-1.87-6.2s-3.26-2.06-6-2.06a11.51,11.51,0,0,0-8.51,3.25q-3.25,3.25-4.88,9.76c-.42,1.5-.83,3.17-1.25,5s-.75,3.5-1,5a46.77,46.77,0,0,0-.5,4.88c0,2.76.62,4.8,1.87,6.14s3.26,2,6,2A11.88,11.88,0,0,0,352.08,105.69Z"/><path class="cls-9" d="M394.06,122.52a2.59,2.59,0,0,1-.5-2.26l9.64-44.92h-9.51a2.39,2.39,0,0,1-2.07-.94,2.63,2.63,0,0,1-.43-2.19l2.25-10.76a3.55,3.55,0,0,1,1.37-2.25,4,4,0,0,1,2.51-.88h9.38l.88-3.75q2.75-12.63,10.51-18.21t20.65-5.57H450.5a2.48,2.48,0,0,1,2.06.88,2.7,2.7,0,0,1,.44,2.25l-2.25,10.76a3.63,3.63,0,0,1-1.38,2.26,4,4,0,0,1-2.5.87h-8.64q-7.64,0-9.13,7.39l-.75,3.12h15a2.49,2.49,0,0,1,2.07.88,2.72,2.72,0,0,1,.44,2.25l-2.26,10.76a3.57,3.57,0,0,1-1.37,2.26,3.84,3.84,0,0,1-2.38.87h-15l-9.64,44.92a3.63,3.63,0,0,1-1.38,2.26,3.82,3.82,0,0,1-2.37.87H396.19A2.66,2.66,0,0,1,394.06,122.52Z"/><path class="cls-9" d="M457.88,105.87a33.24,33.24,0,0,1,.88-7.38l4.88-23.15h-9.76a2.56,2.56,0,0,1-2.13-.94,2.26,2.26,0,0,1-.38-2.19l2.13-10.76a4.12,4.12,0,0,1,3.88-3.13h9.89l4.37-20.64A3.58,3.58,0,0,1,473,35.43a3.78,3.78,0,0,1,2.38-.88h15.39a2.36,2.36,0,0,1,2.06.94,2.64,2.64,0,0,1,.44,2.19l-4.38,20.64h15.64a2.49,2.49,0,0,1,2.07.88,2.72,2.72,0,0,1,.44,2.25L504.8,72.21a3.57,3.57,0,0,1-1.37,2.26,3.84,3.84,0,0,1-2.38.87H485.29l-4.51,21.27a18.77,18.77,0,0,0-.5,4.26,4.63,4.63,0,0,0,1.19,3.5c.79.75,2.15,1.13,4.07,1.13h10.13a2.41,2.41,0,0,1,2.07.94,2.89,2.89,0,0,1,.43,2.31l-2.5,11.51a3.63,3.63,0,0,1-1.38,2.26,3.82,3.82,0,0,1-2.37.87H481.28Q457.88,123.39,457.88,105.87Z"/><path class="cls-9" d="M517,118.7q-7.07-5.94-7.07-17.58a41.68,41.68,0,0,1,.88-8.51l.87-3.88q3.63-14.9,14.21-23.27t25.46-8.39q13.39,0,20.15,6.57t6.75,17.83a46.13,46.13,0,0,1-1,9l-.62,3.13a4.53,4.53,0,0,1-1.51,2.32,3.82,3.82,0,0,1-2.5.93H533l-.13.76a21.65,21.65,0,0,0-.37,4,9.52,9.52,0,0,0,1.87,6.19,6.8,6.8,0,0,0,5.63,2.32,10,10,0,0,0,5.07-1.19,21.74,21.74,0,0,0,4.07-3.07,7.93,7.93,0,0,1,2.19-1.56,6.21,6.21,0,0,1,2.19-.31H570a2.16,2.16,0,0,1,1.76.75,2.07,2.07,0,0,1,.37,1.87q-.87,3.39-5.5,7.64a40.15,40.15,0,0,1-12.33,7.32,46.23,46.23,0,0,1-17.21,3.06Q524.07,124.64,517,118.7Zm38.61-34.6.12-.25a17.62,17.62,0,0,0,.5-4.25,8.72,8.72,0,0,0-2.06-6.2,7.62,7.62,0,0,0-5.82-2.19,10.93,10.93,0,0,0-8.08,3.38,18.27,18.27,0,0,0-4.56,9.26v.25Z"/><path class="cls-9" d="M580.69,122.45a2.67,2.67,0,0,1-.44-2.19l12.39-58.68A3.88,3.88,0,0,1,594,59.26a3.83,3.83,0,0,1,2.5-.94h15.27a2.41,2.41,0,0,1,2.06.94,2.92,2.92,0,0,1,.44,2.32l-1,4.75a22,22,0,0,1,7.76-5.94,26.26,26.26,0,0,1,11-2.07h7.26a2.31,2.31,0,0,1,1.93.88,2.69,2.69,0,0,1,.44,2.25l-2.87,13.64a3.24,3.24,0,0,1-1.26,2.19,3.78,3.78,0,0,1-2.5.94H622.42A12.39,12.39,0,0,0,614.16,81a13.17,13.17,0,0,0-4.25,7.76l-6.76,31.53a3.62,3.62,0,0,1-1.37,2.26,4,4,0,0,1-2.51.87H582.76A2.39,2.39,0,0,1,580.69,122.45Z"/><path class="cls-9" d="M638.63,122.45a2.64,2.64,0,0,1-.44-2.19l12.39-58.68A3.81,3.81,0,0,1,652,59.26a3.85,3.85,0,0,1,2.5-.94h15.27a2.42,2.42,0,0,1,2.07.94,2.92,2.92,0,0,1,.43,2.32l-1,4.75A22.12,22.12,0,0,1,679,60.39a26.26,26.26,0,0,1,11-2.07h7.26a2.35,2.35,0,0,1,1.94.88,2.72,2.72,0,0,1,.44,2.25l-2.88,13.64a3.23,3.23,0,0,1-1.25,2.19,3.81,3.81,0,0,1-2.51.94H680.36A12.37,12.37,0,0,0,672.1,81a13.18,13.18,0,0,0-4.26,7.76l-6.75,31.53a3.63,3.63,0,0,1-1.38,2.26,4,4,0,0,1-2.5.87H640.69A2.36,2.36,0,0,1,638.63,122.45Z"/><path class="cls-9" d="M696.56,122.45a2.71,2.71,0,0,1-.44-2.19l12.39-58.81a4.12,4.12,0,0,1,3.88-3.13H728a2.49,2.49,0,0,1,2.07.88,2.69,2.69,0,0,1,.43,2.25L718,120.26a3.67,3.67,0,0,1-1.31,2.26,3.74,3.74,0,0,1-2.44.87H698.63A2.39,2.39,0,0,1,696.56,122.45Zm15.71-74.07a2.75,2.75,0,0,1-.5-2.32l2.5-11.64a3.72,3.72,0,0,1,1.44-2.31,3.87,3.87,0,0,1,2.44-.94h15.64a2.56,2.56,0,0,1,2.13.94,2.76,2.76,0,0,1,.5,2.31l-2.63,11.64a3.36,3.36,0,0,1-1.25,2.32,3.86,3.86,0,0,1-2.51.94H714.39A2.57,2.57,0,0,1,712.27,48.38Z"/><path class="cls-9" d="M740.29,122.52a2.62,2.62,0,0,1-.5-2.26l9.64-44.92h-9.51a2.39,2.39,0,0,1-2.07-.94,2.63,2.63,0,0,1-.43-2.19l2.25-10.76A3.55,3.55,0,0,1,741,59.2a4,4,0,0,1,2.51-.88h9.38l.88-3.75q2.75-12.63,10.51-18.21T785,30.79h11.76a2.48,2.48,0,0,1,2.06.88,2.7,2.7,0,0,1,.44,2.25L797,44.68a3.63,3.63,0,0,1-1.38,2.26,4,4,0,0,1-2.5.87h-8.64q-7.63,0-9.13,7.39l-.75,3.12h15a2.49,2.49,0,0,1,2.07.88,2.72,2.72,0,0,1,.44,2.25l-2.26,10.76a3.57,3.57,0,0,1-1.37,2.26,3.84,3.84,0,0,1-2.38.87h-15l-9.64,44.92a3.63,3.63,0,0,1-1.38,2.26,3.82,3.82,0,0,1-2.37.87H742.42A2.66,2.66,0,0,1,740.29,122.52Z"/><path class="cls-9" d="M790.28,122.45a2.67,2.67,0,0,1-.43-2.19l12.38-58.81a4.12,4.12,0,0,1,3.88-3.13h15.65a2.48,2.48,0,0,1,2.06.88,2.72,2.72,0,0,1,.44,2.25l-12.52,58.81a3.67,3.67,0,0,1-1.31,2.26,3.74,3.74,0,0,1-2.44.87H792.35A2.39,2.39,0,0,1,790.28,122.45ZM806,48.38a2.75,2.75,0,0,1-.5-2.32L808,34.42a3.76,3.76,0,0,1,1.44-2.31,3.89,3.89,0,0,1,2.44-.94h15.64a2.56,2.56,0,0,1,2.13.94,2.76,2.76,0,0,1,.5,2.31l-2.63,11.64a3.32,3.32,0,0,1-1.25,2.32,3.85,3.85,0,0,1-2.5.94H808.12A2.59,2.59,0,0,1,806,48.38Z"/><path class="cls-9" d="M842,121.83a23.07,23.07,0,0,1-9.94-8.14,22,22,0,0,1-3.63-12.7,35.4,35.4,0,0,1,.37-5l2.13-10.14q3.63-13.75,13.39-21.27t24.27-7.51q10,0,16.65,3.57a24.43,24.43,0,0,1,9.69,8.63A18.43,18.43,0,0,1,898,78.72l-.13,1.38a3.34,3.34,0,0,1-1.18,2.19,3.63,3.63,0,0,1-2.44.94h-17a2.63,2.63,0,0,1-2.88-2.51,7.59,7.59,0,0,0-2.13-5.32,7.79,7.79,0,0,0-5.38-1.68q-9.76,0-13,12.76c-1,4.5-1.63,7.47-1.88,8.88a42.86,42.86,0,0,0-.5,4.63c0,2.75.63,4.78,1.88,6.07S856.46,108,859,108a11.61,11.61,0,0,0,6.26-1.63,14,14,0,0,0,4.63-5.13,5.87,5.87,0,0,1,1.63-2,3.74,3.74,0,0,1,2.25-.62h17a2.41,2.41,0,0,1,2.06.93,2.59,2.59,0,0,1,.31,2.32,29.31,29.31,0,0,1-5.38,9.51q-4.12,5.25-12.07,9.26t-19.46,4A35,35,0,0,1,842,121.83Z"/></g></g></svg>