<svg id="Layer_1" data-name="Layer 1" xmlns="http://www.w3.org/2000/svg" viewBox="0 0 372.57 372.58">
  <defs>
    <style>
      .cls-1{
        fill:#10CFC9;
      }
      @media (prefers-color-scheme: dark) {
        .cls-1{
          fill:#fff;
        }
      }
    </style>
  </defs>
  <title>OptOutToolsLogo</title>
  <path class="cls-1" d="M186.29,0C83.57,0,0,83.57,0,186.29S83.57,372.58,186.29,372.58a185.67,185.67,0,0,0,91.3-23.93l65.12,22.67a22.19,22.19,0,0,0,7.38,1.26,22.48,22.48,0,0,0,21.23-29.87l-22.67-65.12a185.63,185.63,0,0,0,23.92-91.3C372.57,83.57,289,0,186.29,0ZM302.73,282.41l10.85,31.17-31.17-10.85a22.45,22.45,0,0,0-19.58,2.35,140.79,140.79,0,0,1-76.54,22.55C108.35,327.63,45,264.22,45,186.29S108.35,45,186.29,45s141.33,63.4,141.33,141.34a140.71,140.71,0,0,1-22.55,76.54A22.48,22.48,0,0,0,302.73,282.41Z"/><polygon class="cls-1" points="208.76 150.85 208.76 95.47 163.81 95.47 163.81 150.85 103.46 137.3 93.61 181.16 149.83 193.78 113.21 250.14 150.9 274.64 186.29 220.18 221.67 274.64 259.37 250.14 222.74 193.78 278.96 181.16 269.12 137.3 208.76 150.85"/></svg>
