<svg id="Layer_1" data-name="Layer 1" xmlns="http://www.w3.org/2000/svg" viewBox="0 0 1080 372.58"><defs><style>.cls-1{fill:#10cfc9;}</style></defs><title>OptOutLogo</title><path class="cls-1" d="M186.29,0C83.57,0,0,83.57,0,186.29S83.57,372.58,186.29,372.58a185.67,185.67,0,0,0,91.3-23.93l65.12,22.67a22.19,22.19,0,0,0,7.38,1.26,22.48,22.48,0,0,0,21.23-29.87l-22.67-65.12a185.63,185.63,0,0,0,23.92-91.3C372.57,83.57,289,0,186.29,0ZM302.73,282.41l10.85,31.17-31.17-10.85a22.45,22.45,0,0,0-19.58,2.35,140.79,140.79,0,0,1-76.54,22.55C108.35,327.63,45,264.22,45,186.29S108.35,45,186.29,45s141.33,63.4,141.33,141.34a140.71,140.71,0,0,1-22.55,76.54A22.48,22.48,0,0,0,302.73,282.41Z"/><polygon class="cls-1" points="208.76 150.85 208.76 95.47 163.81 95.47 163.81 150.85 103.46 137.3 93.61 181.16 149.83 193.78 113.21 250.14 150.9 274.64 186.29 220.18 221.67 274.64 259.37 250.14 222.74 193.78 278.96 181.16 269.12 137.3 208.76 150.85"/><path class="cls-1" d="M499.54,95.26c-44.07,0-70,32.9-70,75.17,0,41.08,25.92,74,70,74s70-32.9,70-74C569.53,128.16,543.61,95.26,499.54,95.26Zm0,122.83c-28.12,0-38.69-23.93-38.69-47.66,0-24.92,10.57-48.85,38.69-48.85s38.68,23.93,38.68,48.85C538.22,194.16,527.65,218.09,499.54,218.09Z"/><path class="cls-1" d="M733.64,107H705.32v30.91H688.17v18.95h17.15v60.81c0,20.54,15.16,24.53,32.5,24.53a108.38,108.38,0,0,0,16.56-1V219.09a43.47,43.47,0,0,1-8.78.8c-9.57,0-12-2.4-12-12v-51h20.74V137.93H733.64Z"/><path class="cls-1" d="M639.92,135.14c-12.76,0-23.93,5-30.71,16h-.4V137.93H581.89V277.32h28.32V228.26h.39c6.79,10.17,18.55,15.56,30.91,15.56,30.11,0,45.27-25.73,45.27-53.25C686.78,161.26,672.22,135.14,639.92,135.14Zm-6,87.34c-18.35,0-24.73-15.95-24.73-32.7s6-33.3,24.53-33.3c18.14,0,24.72,16.94,24.72,33.3C658.46,206.53,652.48,222.48,633.94,222.48Z"/><path class="cls-1" d="M979.5,192c0,20.94-6.58,29.51-21.93,29.51-13.16,0-18.15-8.37-18.15-25.32V137.93H911.11v63.41c0,25.53,7.57,42.48,37.68,42.48a36.79,36.79,0,0,0,31.51-17.15h.6V241h26.92V137.93H979.5Z"/><path class="cls-1" d="M1080,156.88V137.93h-20.74V107H1031v30.91H1013.8v18.95H1031v60.81c0,20.54,15.15,24.53,32.5,24.53a108.33,108.33,0,0,0,16.55-1V219.09a43.37,43.37,0,0,1-8.77.8c-9.57,0-12-2.4-12-12v-51Z"/><path class="cls-1" d="M828.75,95.26c-44.07,0-70,32.9-70,75.17,0,41.08,25.92,74,70,74s70-32.9,70-74C898.74,128.16,872.82,95.26,828.75,95.26Zm0,122.83c-28.11,0-38.68-23.93-38.68-47.66,0-24.92,10.57-48.85,38.68-48.85s38.69,23.93,38.69,48.85C867.44,194.16,856.87,218.09,828.75,218.09Z"/></svg>